<svg xmlns="http://www.w3.org/2000/svg" viewBox="0 0 24 24" fill="currentColor" aria-hidden="true">
  <path d="M12 2a5 5 0 0 0-5 5v2a5 5 0 0 0 10 0V7a5 5 0 0 0-5-5zm-4 5a4 4 0 1 1 8 0v2a4 4 0 1 1-8 0V7z"/>
  <circle cx="10" cy="8" r="0.8"/>
  <circle cx="14" cy="8" r="0.8"/>
  <path d="M5 15.5A2.5 2.5 0 0 1 7.5 13h9a2.5 2.5 0 0 1 2.5 2.5V20a1 1 0 0 1-1 1h-2.5v-3.5a.5.5 0 0 0-1 0V21h-5v-3.5a.5.5 0 0 0-1 0V21H6a1 1 0 0 1-1-1v-4.5zm2.5-1.5a1.5 1.5 0 0 0-1.5 1.5V20h1.5v-2.5a1.5 1.5 0 0 1 3 0V20h3v-2.5a1.5 1.5 0 0 1 3 0V20H18v-4.5a1.5 1.5 0 0 0-1.5-1.5h-9z"/>
  <circle cx="3.5" cy="11" r="0.8"/>
  <circle cx="20.5" cy="11" r="0.8"/>
</svg>
